<?xml version="1.0" encoding="utf-8"?>
<!-- Generator: Adobe Illustrator 26.4.1, SVG Export Plug-In . SVG Version: 6.00 Build 0)  -->
<svg version="1.1" id="Layer_1" xmlns="http://www.w3.org/2000/svg" xmlns:xlink="http://www.w3.org/1999/xlink" x="0px" y="0px"
	 viewBox="0 0 443.8 497.7" style="enable-background:new 0 0 443.8 497.7;" xml:space="preserve">
<style type="text/css">
	.st0{fill:#231F20;}
	.st1{fill:#BA8D2D;}
	.st2{fill:#70AD83;}
	.st3{fill:#287C49;}
	.st4{fill:#096B37;}
	.st5{fill:#1A7540;}
	.st6{fill:#3A8A57;}
	.st7{fill:#4F9968;}
	.st8{fill:#583689;}
</style>
<g>
	<g>
		<path class="st0" d="M434.6,77.3c0,0-110.3,6.9-212.7-77.3c0,0-88.6,77.9-212.2,77.9c0,0-16.6,156.3,76.2,304.8
			c1.1-1.2,2.2-2.4,3.5-3.5c0.5-0.4,0.9-0.8,1.4-1.2C1.7,235.2,17.6,84.9,17.6,84.9c119,0,204.2-74.9,204.2-74.9
			c98.5,81,204.6,74.4,204.6,74.4c6.3,131.1-33.2,230.4-79.1,300.3c0.5,0.5,1.1,1.1,1.6,1.7c1.1,1.2,2.1,2.4,3.1,3.7
			C399.8,317.4,441.1,214,434.6,77.3z"/>
		<g>
			<path class="st1" d="M300.4,377.6c0-0.2,0-0.4-0.2-0.4S300,377.6,300.4,377.6C300.4,377.8,300.2,377.6,300.4,377.6z"/>
			<path class="st1" d="M303.8,371c0,0.2,0,0.2,0,0.4h0.2L303.8,371z"/>
			<g>
				<path class="st1" d="M268,296c0.3,0.8,0.3,1.6,0.5,2.4c0.3,1.3,0.8,2.4,1.3,3.8c1.6,2.7,2.7,5.4,3.5,8.3
					c-2.7,2.7-5.9,5.1-9.4,6.7c-1.6,0.8-3.2,1.6-4.8,2.4c-4,1.9-8,3.2-12.1,4.8c-1.1,0.3-1.9,0.5-2.7,1.1c-2.4,0.5-5.1,1.3-7.5,2.1
					c-1.3,0.3-1.3,0.3-5.9,1.6c-0.5,0-1.1,0-1.6,0.3c-5.4,1.1-10.7,1.6-16.1,2.4l-8.9,0.8c-1.3,0-2.7-0.3-4,0l-11.5-0.8
					c-6.7-0.8-13.1-1.9-19.6-3l-9.4-2.1l-5.6-1.6c-4.6-1.6-8.9-3.8-12.9-6.4c-0.5,0-0.8,0-0.8,0.5c2.7,2.1,5.4,4.3,8,6.4
					c4.6,3.5,9.7,5.6,15,7c1.1,0.3,4.3,1.1,7.8,1.9c5.4,1.3,10.7,2.1,16.1,2.7c4.8,0.8,9.7,1.1,14.8,1.3l0.3,0.3h0.5l7.2-0.3
					c0.5,0,1.1,0,1.6-0.3c2.1-0.3,3.2,0,3.2-0.3c6.2-0.8,6.4-0.8,6.7-0.8s2.7-0.5,2.7-0.5c7.2-0.8,14.2-3.8,21.2-5.6
					c1.1-0.5,1.9-0.8,3-1.1c7.2-2.7,14-6.2,20.1-10.5c1.1-1.1,2.1-2.1,3.2-3.5c1.9-3.2,3.2-6.7,3.8-10.2c-0.5-3.2-2.4-5.9-3.5-9.1
					c0-0.3,0-0.3,0-0.5c0.8,0.3,1.6,0.3,2.4,0.3c0-0.3,0-0.5,0-0.8c-1.6-1.9-3.2-4-4.8-5.9c-0.3-0.3-0.5-0.5-1.1-0.3
					c-1.1,1.6-1.9,3.5-2.1,5.4L268,296z"/>
				<path class="st1" d="M291.1,307.3c1.3,0.3,2.4,0.5,3.8,0.5c2.1,0,2.1,0,3.5-0.3c2.1-0.5,3-0.8,3.2-0.8c0.8,1.3,0.8,2.7,0.3,4
					c-3.2,3-6.4,5.6-10.2,7.8c-9.1,5.6-18.5,10.5-28.4,14.8c-0.3,0-4.6,1.9-3,2.7c1.6-0.5,3.2-1.1,4.8-1.6c4.8-0.5,9.7-1.9,14.5-3.2
					c3.8-2.1,3.8-2.1,5.1-2.7c3.2-1.9,6.4-4,9.4-6.2l4.6-4c2.1-3,4-6.4,4.8-10.2c0.3-0.8,0.3-1.6,0.5-2.4c0.8-0.5,1.6-1.1,2.4-1.3
					c0.5-0.3,1.1-0.8,1.6-1.1c2.7-2.7,3.8-6.4,3.2-10.2c-0.3-0.8-0.8-1.9-0.8-2.7c-0.8-1.9-1.9-3.8-3-5.4c0.8,0,1.6,0.8,2.4,0.5
					c0-0.3,0-0.3,0-0.5c-1.6-2.7-3.5-5.1-5.6-7.2c-0.5-0.3-0.5-0.3-1.1,0c-0.5,1.3-1.1,3-1.3,4.3c-0.3,1.6,0,1.6,1.1,2.7
					c0.3,0.3,0.3,0.8,0.3,1.1c1.3,3,2.7,5.6,4.3,8.3c0.5,1.1,1.9,2.7,1.6,4c-1.6,1.1-3.5,1.9-5.6,2.4c-0.8-3.8-4-7-7.8-7.5
					c-4.6,0.5-6.2,5.4-7.2,9.1C288.1,304.6,289.2,306.5,291.1,307.3z M291.9,299.8c2.1-2.1,5.4,0.5,7,1.9l-2.7,0.3
					c-1.3-0.3-3.5,0-4.3-1.3C291.9,300.3,291.9,300,291.9,299.8z"/>
				<path class="st1" d="M300.2,321.5c0,0-0.3,0-0.5,0c-1.3,2.7-3,9.7,1.1,11c1.9-0.8,2.7-3,2.1-4.8h-0.3c-0.8,0.8-0.5,2.1-1.9,2.1
					c-2.7-1.1-0.8-5.6-0.5-7.5C300.2,322.1,300.2,321.8,300.2,321.5z"/>
				<path class="st1" d="M324.6,292.5c0.5,0,2.4,0.3,2.7-0.3c0.3-0.5,0-0.3,0-0.5c-2.7-1.6-5.9-3-8.6-4.6h-0.5l-0.3,0.3
					c0.5,4.8,0.5,4.8,0.5,5.6c0.8,0.5,1.6,1.1,2.4,1.3l2.1,2.4c1.6,1.3,3.5,2.7,5.4,4c3.8,2.1,7.5,4.3,11.3,6.7
					c0.8,0.8,1.9,1.3,2.1,2.7c-1.9,2.7-4.3,4.6-7.2,5.6c-5.9,3.5-12.3,6.7-18.8,9.1c-2.4,0.8-4.8,0.3-6.4-1.6
					c-1.3-2.7-1.3-5.9,0-8.6c0.5-1.3,1.1-2.1,1.9-3.5c0.8,0.3,1.3,1.1,2.1,1.1c1.1-1.1,1.9-2.4,3-3.8c1.9,1.1,3.5,2.1,5.1,3.2h0.5
					l3.5-4.3c0-0.3,0-0.3,0-0.5c-0.5-0.3-3-1.9-5.4-3.5c-1.6,0-2.1,3.8-3.5,3.8c-0.3-0.8-2.4-1.6-3-2.1c-0.5-0.5-1.6-1.6-2.4-1.3
					c-1.1,1.3-3.2,3.5-3.2,5.1l2.1,1.9l-2.4,5.6c-0.5,2.1-1.1,4-1.6,6.2c0,1.1,0,2.1,0,3.2c0.3,0.5,0.3,1.3,0.5,1.9
					c1.1,2.1,3.2,3.8,5.9,3.8c2.1-0.3,4-0.8,5.9-1.9v-0.3c1.3-0.5,2.4-1.1,3.8-1.9c4.6-2.1,8.9-4.8,13.1-7.2l0.3,0.3h0.3
					c0-0.3,0-0.3,0-0.5l3-1.9c1.3-1.1,2.7-2.7,3.5-4.3c0.3-0.5,0.3-1.3,0.5-2.1c-0.3-3.8-0.5-8.3-4.3-10.2l-0.5-0.5
					c-4-2.4-8.3-4.8-12.3-7.5C325.7,293.3,324.6,292.8,324.6,292.5z"/>
				<path class="st1" d="M126.1,332.5c0.8-0.5,1.6-1.1,2.4-1.6c3.8-1.9,7.2-3.8,10.7-5.4c0.8-0.5,1.9-1.9,1.9-3
					c-0.3,0-0.8,0.5-1.1,0.8l-4.3,2.1c-3.5,1.3-6.7,3.2-9.9,5.4c-0.5,0.8-0.8,1.6-0.8,2.4C125.5,333.1,125.8,332.8,126.1,332.5z"/>
				<path class="st1" d="M200.4,321.8c-0.5,0-1.3,1.9-1.3,2.1c-0.8,2.1-1.9,5.9,0.5,7.2c1.3-0.3,2.1-2.7,2.1-4h-0.3
					c-0.3,0.5-0.8,1.6-1.6,1.1C198.3,326.1,199.3,323.9,200.4,321.8C200.4,322.1,200.4,321.8,200.4,321.8z"/>
				<path class="st1" d="M220,329.3L220,329.3c-0.3,0.3-0.5,0.3-0.5,0.5c-0.3-0.3-0.3-0.3-0.5,0c0,0.3,0,0.3,0,0.5h0.3l0,0l0.3-0.3
					C219.7,329.8,219.7,329.8,220,329.3L220,329.3z"/>
				<path class="st1" d="M228.6,315.3L228.6,315.3c-1.3,1.9-2.1,4.3-2.7,6.4c0,2.1,0,4.6,2.4,5.6c1.3-1.1,2.1-3,2.1-4.6h-0.3
					c-0.3,0.8-0.8,1.6-1.6,2.1c-2.1-0.3-1.9-4-1.6-5.6C227.8,318,228.3,316.7,228.6,315.3z"/>
				<path class="st1" d="M102.2,325.3c1.6,2.4,4.3,4,7.2,4.6c1.3,0,2.7-0.3,4-0.5c1.1-0.5,2.4-1.1,3.5-1.6l3.2-2.7
					c1.1-1.1,2.1-2.1,3.2-3c4.8-5.1,10.5-9.1,16.6-12.3c0.8,2.7,2.4,5.1,4.6,6.7c2.7,1.9,7.5,3.2,9.1-0.5c0.5-2.7,0.8-5.1,0.8-7.8
					c0-0.8-0.3-1.6-0.5-2.4c-2.4-4-7-3.5-11-3.2c-1.3,0.3-0.8,0.5-1.3-1.3l-1.6-9.4c-0.8-5.6-1.3-10.2-1.9-14.2
					c-0.5-4-0.5-6.2-0.8-11c1.6,0.3,2.1,3.2,3.5,3.5h0.3v-0.3c-1.9-4.3-3.5-8.3-5.4-12.6c-0.3-0.8-0.5-1.6-1.3-2.1h-0.3
					c-0.5,0.8-0.8,1.3-1.1,2.1c-0.8,1.1-1.3,2.1-1.3,3.5c0.5,0.5,1.1,1.3,1.3,2.1c0.5,5.1,1.1,10.2,1.6,15.3
					c0.5,8.6,1.6,17.2,3.5,25.8v0.3c-3.8,1.9-7.5,4.3-10.7,7c-0.5,0.5-0.5,0.5-10.7,9.7c-1.1,1.1-1.1,1.1-3.5,2.7
					c-1.1,0.8-2.4,1.1-3.5,1.9c-2.4,0.8-5.1-0.3-6.4-2.4c-1.1-3-1.1-5.9,0-8.9c1.1-2.7,1.1-2.7,2.1-5.1c1.1-1.6,2.4-3.2,3.2-5.1
					c0.3,0,1.1,1.3,1.6,1.6c3,1.6,4,0,4.6-2.7c0-0.8,0.3-4-0.5-4.6H114v0.3c-0.3,1.3-0.5,3.5-2.7,3c-2.1-1.9-1.3-4.8-0.8-7.2
					c0.3-1.1,0.8-2.4,1.3-3.5c0.5-0.8,2.1-3.2,1.6-4.3h-0.5c-2.4,3.2-4,7-4.8,11l-0.3,2.4c0,1.6,0.3,1.9,0.3,2.4s-1.3,1.9-2.1,3
					c-2.1,3.5-3.8,7.2-4.8,11.5c0,1.1-0.3,1.9-0.3,3s0.3,2.4,0.5,3.5L102.2,325.3z M144.1,308.1c1.9,0,3.5,0.3,5.4,0.5
					c0.5,0.3,3,1.6,2.7,2.4l-1.1,0.5h-1.3c0,0-0.8,0-1.6-0.3C146.5,310.8,144.9,309.7,144.1,308.1L144.1,308.1z"/>
				<rect x="295.9" y="323.1" class="st1" width="0.3" height="0.3"/>
				<path class="st1" d="M155.9,275.1c1.3,8,1.9,16.1,2.1,24.1c0,2.4,0.3,4.6,0.5,7c0.5,2.7,1.6,5.4,2.7,7.8
					c0.8,1.1,1.3,2.1,2.1,3.2c0.8,0.8,1.3,1.3,2.1,1.9c1.6,0.8,3.5,1.6,5.4,2.4c-0.3,1.1-0.5,2.1-0.8,3.5c0,0.5,0,0.5,0.3,0.8h0.3
					l1.6-3.5c1.6,0,3.2,0,5.1,0c1.6-0.3,3.5-0.5,5.1-0.5c0.3,0,3.8,0.3,4.8,0.5c1.1,0.3,1.3,0,6.7,0c1.3-0.3,2.7-0.5,4-0.5
					c3.8-0.5,7.5-1.3,11-2.1c4.3-0.8,8.6-2.1,12.6-4c2.1-0.8,2.1-0.8,14.2-5.4c0.3,0.5,0.5,1.3,0.8,2.1c1.3,3.2,4.3,5.4,7.5,6.2
					c1.1,0,2.4,0,3.5-0.3c1.3-1.1,2.4-2.7,2.4-4.6c0-2.1-0.5-4.6-1.3-6.7c-0.5-0.5-1.1-1.3-1.6-1.9c-3-1.3-5.9-1.6-9.1-1.1h-0.3
					c-0.3-0.5-0.3-0.5-1.3-5.6c-0.8-5.6-1.6-11.3-2.4-16.9c-0.3-4.3-0.8-7.2-1.1-11.3c-0.3-1.9-0.5-3.8-0.5-5.6c0,0,1.9,2.1,2.7,3.2
					c1.1,0,0.5-1.1,0.3-1.6c-1.1-4-2.7-8.3-4-12.3l-0.3-0.3c-1.3,1.6-2.4,3.5-2.7,5.6c0.5,0.8,0.8,1.6,0.8,2.4l0,0
					c0.5,6.7,1.1,13.4,2.1,20.1c0.8,7.8,2.1,15.6,3.8,23.3c0,0.3,0,0.3,0,0.5l-5.9,2.1c-3.2,1.3-6.4,2.1-9.7,3.5
					c-3,0.8-5.9,1.9-9.1,2.4c-3,0.8-6.2,1.6-9.1,1.9c0.8-0.8,1.3-1.3,2.1-2.1c1.6-2.7,3-5.4,4-8.3c0.5-1.6,0.3-3.2-0.3-4.8
					c-1.9-2.4-4.8-3.8-7.8-4c-1.9,0-4,0.3-5.9,0.8l-2.7,1.1c-2.1,1.3-4.3,2.7-6.4,4.3c-2.4,2.1-4.6,4.3-6.4,6.7
					c0.3-1.1,0.8-2.4,1.1-3.5c0.3-1.9,0.5-3.8,0.8-5.6c0-2.1,0-4-0.3-5.9c-0.8-8.6-1.9-16.9-2.7-25.5c-0.3-1.6-0.3-3.5-0.3-5.1
					c0.8,0.8,1.6,1.6,2.4,2.7c1.9,0.8-0.5-4-0.5-4.3c-1.1-3.2-2.1-6.2-3.5-9.4c-0.3-0.3-0.5-0.3-0.8-0.3c-1.3,2.1-1.3,2.1-2.4,4.6
					c0.3,0.8,0.5,1.6,0.8,2.1c0.3,1.1,0.3,1.1,0.8,4c0.5,10.5,2.1,20.9,3.2,31.4c0.5,5.1,0.5,10.2-0.3,15c-0.5,2.4-1.6,4.6-2.7,6.7
					c-0.8,0-1.9-0.3-2.7-0.5c-2.1-0.8-4.3-2.1-5.9-4c-4.3-6.2-4-14.2-4.3-21.5c-0.3-4.3-0.8-8.3-0.8-12.6c-0.3-1.6-0.5-3.2-0.8-4.8
					c-0.5-1.9-0.8-3.8-1.1-5.6c-0.3-0.8-0.5-1.9-0.5-2.7c-1.1-3.2-1.6-6.4-3-9.4c0-0.3-0.3-1.6-0.8-1.1c-0.5,1.6-1.1,3.2-1.6,5.1
					c0,0.3,0,0.3,0,0.5c1.1,3.2,2.1,6.4,2.7,9.9C155.3,270.8,155.9,272.9,155.9,275.1z M248.2,310.5c0.3,1.3-1.6,1.3-2.7,1.6
					c-1.9-0.3-3.8-1.3-5.1-2.7C243.3,309.2,245.8,309.4,248.2,310.5L248.2,310.5z M182.4,307.6c1.6-1.3,3.5-2.7,5.4-4
					c2.4-1.1,2.4-1.1,5.4-2.1l1.9-0.3h1.3c2.7,0.5,9.1,2.7,8.3,6.2c-3,2.7-6.4,4.8-10.5,5.9c-4.3,1.1-5.1,1.3-5.4,1.3
					c-4.3,0.8-8.6,1.3-12.9,1.3v-0.3C177.9,312.9,180,310,182.4,307.6L182.4,307.6z"/>
				<path class="st1" d="M276.3,262.5c0.3,2.4,0.3,2.4,0.8,8.6c0.8,4.3,1.3,8.6,2.1,12.9c1.3,8.9,2.7,17.7,3.8,26.6
					c0.3,2.7,0,5.4,0.3,8l0,0l0.3-0.3l1.9-5.9c0-1.1,0.3-2.1,0.3-3.2c-0.8-12.3-2.4-24.4-4.6-36.8c0-0.8-0.3-1.3-0.3-2.1
					c-0.5-2.1-0.8-4.3-1.1-6.4l0.3,0.3c1.1,1.3,2.1,2.4,3.2,3.5c0.3,0,0.3-0.5,0.3-0.8c-0.5-1.9-1.3-4-1.9-5.9
					c-1.1-2.7-2.4-5.4-3.8-7.8l-0.5-0.3h-0.3c-1.1,1.6-1.9,3.2-2.4,5.1c0.3,1.1,0.8,2.1,1.6,3.2
					C276.1,261.4,276.1,261.9,276.3,262.5z"/>
				<path class="st1" d="M110.3,310.5c-1.1,2.7-2.4,7.8,1.1,9.4c2.1-0.3,1.9-2.1,2.1-4c0-0.3,0-0.5,0-0.8c-0.3,0-0.3,0-0.5,0
					c-0.3,1.1-0.5,2.1-1.9,1.6c-0.8-1.1-1.1-2.1-1.1-3.5C110.3,312.4,110.5,311.6,110.3,310.5L110.3,310.5z"/>
				<path class="st1" d="M247.1,260.6c0.8,6.7,1.3,13.7,2.4,20.4c0.8,5.9,1.6,11.8,2.7,17.4c0.3,2.4,0.5,4.8,1.1,7.5
					c0.5,4.8,0.5,4.8,0.8,9.9h0.3h0.3c0.5-2.1,1.1-4.3,1.6-6.4c0.3-3,0.3-5.6-0.3-8.6c-1.6-12.3-3.5-24.4-4.8-36.8
					c0.3,0.3,3.2,5.1,3.5,2.7l-2.7-7.8c-1.1-2.1-2.1-4.3-3.2-6.4c-0.5-0.3-0.8,0-1.1,0.3l-1.9,4.6c0,0.3,0,0.3,0,0.5
					C246.3,258.5,246.8,259.5,247.1,260.6z"/>
				<path class="st1" d="M262.9,310.8L262.9,310.8h0.5l3.2-4.6v-0.3c-4.6-3.8-4.6-3.8-5.1-4.3h-0.3c-0.8,1.1-0.8,1.1-1.9,2.4
					c-0.5,0.8-1.3,1.6-1.1,2.4C262.1,310,262.1,310,262.9,310.8z"/>
				<path class="st1" d="M223.5,301.4c0.5,1.6,0.8,2.1,2.7,2.4c2.1-0.5,2.4-4,1.9-5.6h-0.3c0,0,0,0-0.5,1.6
					c-0.3,0.5-0.5,0.8-1.1,1.1c-3,0.3-1.9-3.8-1.6-5.1c0.3-0.8,2.7-5.4,2.1-6.2h-0.3c-1.9,3-3.2,6.4-3.5,10.2
					C223.2,299.8,223.5,300.6,223.5,301.4z"/>
				<path class="st1" d="M120.7,277L120.7,277l0.3-0.3h0.3c0,0,0,0,0.8,1.3c0.5,1.1,1.1,2.1,1.3,3.2l-1.1,0.8
					c-0.5,0.8-0.8,1.6-0.8,2.7c0,0,0,0,0.8-0.8c0.5-0.3,1.3-0.3,1.9,0v0.3c-0.8,0.3-1.3,0.8-2.1,1.3c-2.4,3.2,0.5,7.5,1.6,10.2
					l1.3,3.2c1.3,4.6,1.3,4.6,1.6,5.4c0,0.5,0.3,1.1,0.5,1.3h0.3c0-3-0.5-5.6-1.6-8.3l-1.3-3.5c-0.8-1.6-1.6-3.2-2.1-4.8
					c-0.3-0.3-0.5-0.8-0.5-1.3c1.3-1.1,2.7-1.9,4.6-2.1c0.3-0.5,0.5-1.3,0.8-1.9c0-1.3-1.9-2.4-3-2.4c0.3-2.4,0.5-5.1,1.1-7.5
					c1.1-1.9,2.1-1.3,3,0.5h0.3c0.3-0.8,0.3-1.6,0.3-2.4c-0.5-1.1-1.1-2.1-2.4-1.9c-2.4,1.6-2.1,5.6-2.7,8c-0.8-1.9-2.4-5.9-4.8-5.9
					c-0.3,1.1-0.3,2.1-0.3,3.2C118.8,275.6,119.9,276.4,120.7,277z"/>
				<path class="st1" d="M132.3,305.1h0.8c0.8-1.1,1.3-2.4,1.1-3.8c-0.3-0.3-0.8,0.8-0.8,1.1c-1.6,0.8-2.4-1.3-2.4-2.4
					c0.5-1.3,0.8-2.4,0.8-3.8c-1.1,0.3-1.3,4.6-1.6,5.9C130.1,303,130.9,304.3,132.3,305.1z"/>
				<path class="st1" d="M228.6,300.6L228.6,300.6l-0.3,0.3L228.6,300.6z"/>
				<path class="st1" d="M217.8,288c-1.6-1.1-2.1-0.5-2.7,1.1c-0.5,2.1-1.1,5.1-1.6,7.2l0,0c-0.5-0.5-0.8-1.3-1.3-2.1l-0.8-1.1
					c-0.8-1.1-3.5-4-5.1-3.8c-0.3,1.3-0.3,2.4,0,3.8c0.8,0.5,1.9,1.1,3,1.3l0.5-0.3l1.6,2.1c0.5,1.1,1.3,2.7,1.9,3.8h0.3l0.3-0.3
					c1.1-4.8,1.3-6.7,1.6-8.3c0-0.3,0.3-0.8,0.5-1.1c1.1,0.5,1.9,1.3,2.4,2.4h0.3c0.3-1.1,0.5-2.4,0.3-3.8h-0.3L217.8,288z"/>
				<path class="st1" d="M145.4,292.8l0.5-0.3c1.3,1.9,2.4,3.8,3,5.9l0.3,0.3h0.3c1.1-2.7,1.3-5.9,2.4-8.6c1.1-1.3,2.1-0.3,3,1.1
					c0.8-0.3,0.5-2.4,0.5-3c-0.8-0.8-1.3-1.6-2.4-1.6c-2.4,1.1-2.4,6.7-3.2,8.3c-0.5-0.8-0.5-0.8-1.9-3.5c-0.8-1.1-2.7-4.3-4-4
					c-0.5,1.1-0.8,2.4-0.8,3.5C143,290.7,144.3,291.7,145.4,292.8z"/>
				<path class="st1" d="M170.4,297.1c1.9-0.5,2.1-3.5,1.9-5.1l0,0H172c-0.3,0.8-0.5,1.9-1.6,1.9c-2.1-1.1-1.9-3.8-1.9-5.9
					c0.5-1.6,0.8-3,1.3-4.6l-0.3-0.3l-0.5,0.3c-1.1,2.1-1.6,4.6-1.9,7C167.4,293.1,167.4,296.6,170.4,297.1z"/>
				<path class="st1" d="M225.4,273.2l-4.6,2.4c-7.8,3.8-15.3,7.2-22.8,11.5c-3.2,1.6-6.2,3.8-9.1,6.2c-0.3,0.8-0.3,1.9,0,2.7
					c3.5-3,7.2-5.4,11.3-7.8c5.9-3.2,5.9-3.2,8.3-4.3c0.3,0,0.5,0,0.5-0.3l15.8-7.8C225.1,275.4,226.4,273.2,225.4,273.2z"/>
				<path class="st1" d="M331.9,290.7c1.3-0.3,1.3-1.3,1.9-2.7c0-0.5,0-2.1-0.5-2.4l-0.3,0.3c0,1.1-0.5,2.4-1.9,2.1
					c-1.1-1.1-0.5-3.8-0.5-5.1c0-0.8,1.1-3.5,0-3.8c-0.8,1.6-1.1,3.5-1.1,5.4C329.5,286.9,329.5,289.6,331.9,290.7z"/>
				<path class="st1" d="M294.3,281L294.3,281c-0.5,0.8-0.5,1.6-0.5,2.4c-0.3,1.1-0.5,1.9-0.8,3c-0.3,2.1-0.8,3.8,1.3,4.6
					c1.3,0,2.4-0.5,3.2-1.6c0.8-1.9,0.8-3.8,0-5.6l-0.8-1.1C295.7,282.3,294.9,281.8,294.3,281z M294.3,288.2
					c-0.5-0.3-0.8-0.3-0.8-0.8s0.3-2.7,1.1-3.2c0.8,0.5,2.4,1.3,2.7,2.4C296.5,287.7,295.4,288.2,294.3,288.2L294.3,288.2z"/>
				<path class="st1" d="M243.9,290.4c0.8,0,1.1-0.3,1.6-1.1c0.3-0.8,0.3-1.9-0.3-2.7h-0.3c-0.3,0.3-0.3,0.5-0.5,1.1
					c-0.8,0.5-1.6-0.3-1.9-0.8c0-1.9,0.8-3.8,0.8-5.6H243C241.7,283.4,240.1,289.3,243.9,290.4z"/>
				<path class="st1" d="M314.4,277.5L314.4,277.5c-1.3,2.1-3.8,8.9-0.3,10.2c0.5-0.3,1.1-0.8,1.3-1.6c0-0.3,0.8-3.2,0.3-3.2
					c-0.3,0.8-0.8,1.9-1.6,2.1C311.8,284.2,313.9,279.1,314.4,277.5L314.4,277.5z"/>
				<path class="st1" d="M259.7,256.3c0.8,0.8,2.4,2.7,2.4,3.8c-1.1,0.3-1.9,2.4-1.6,3.2c0.5,0,0.8-0.5,0.8-0.8c0.5,0,1.9,0,2.1,0.8
					l-1.6,0.5c-1.9,1.1-1.9,2.4-2.1,4.3c1.1,5.4,4.6,9.9,6.4,15.3c0,0.5,0,1.3,0.5,1.9c1.3-3.2-1.1-7.8-2.7-10.5
					c-1.1-2.1-2.1-4.6-3-6.7c0-0.5,0-0.8,0-1.3c1.6-0.8,3.2-1.3,4.8-1.6c0.3-0.5,0.8-1.3,0.8-2.1c-0.3-0.8-1.3-1.3-1.3-1.6l-2.1-1.1
					c0-1.9,0.3-3.8,0.5-5.6c0.3-0.8,0.5-1.9,1.6-1.9c0.5,0.3,1.3,0.8,1.6,1.3c0.5,0,0.5-2.1,0.5-2.4c-0.5-0.8-1.3-1.1-2.1-1.3
					c-1.3,0.3-1.6,1.1-1.9,2.4c-0.3,1.6-0.5,3.5-0.5,5.1c-0.5-0.3-1.3-2.1-1.9-2.7c-1.1-1.3-2.4-2.4-4-3.5h-0.1
					c-0.3,1.1-0.3,1.9-0.3,3c0.8,0.5,1.6,1.1,2.7,1.3L259.7,256.3z"/>
				<path class="st1" d="M194.2,281.5c-1.1-1.9-3.8-3-5.4-4.3c-1.3,0.3-3,3.5-3.5,4.6c0,0.3,0,0.3,0,0.5c1.6,1.3,3.2,2.4,4.8,3.8
					c1.1-0.3,1.9-1.6,2.7-2.4h0.3c0-0.3,0.3-0.3,0-0.5C193.4,282.6,194.2,282.1,194.2,281.5z"/>
				<path class="st1" d="M291.9,276.7c7.2-4.3,14.5-8.3,22.3-11.8c0.8-0.3,3.2-2.1,3.8-1.9c0.5-0.8,0.8-1.6,0.8-2.7
					c-1.3,0.5-2.7,1.3-4,2.1c-4.6,2.1-9.1,4.6-13.7,6.7c-0.3,0.3-1.3,0.8-8.6,5.1c-2.7,1.9-4.3,2.7-4.6,6.2
					C289,278.9,290.3,277.5,291.9,276.7z"/>
				<path class="st1" d="M316.6,268.4c-0.3,1.1-0.5,2.1-0.5,3.5c0.5,0.8,1.3,1.3,2.1,1.9c0.3,0,0.8-0.3,0.8-0.5
					c1.3,1.6,2.1,3.5,2.7,5.4l0,0l0.3-0.3c0.5-1.9,0.5-1.9,1.9-7.5c0-0.3,0.3-0.5,0.3-0.5c1.1-0.5,2.4,0.8,2.7,1.6
					c0.8-0.3,0.5-2.1,0.3-3c-0.8-0.8-2.1-2.1-3.2-1.3c-1.1,2.4-1.9,4.8-2.4,7.5l0,0c-0.5-1.3-1.1-2.4-1.9-3.8
					C319.3,270.8,317.7,268.4,316.6,268.4z"/>
				<path class="st1" d="M182.7,274.8c-0.3,1.1-0.5,2.1-0.3,3c1.1-0.5,1.9-1.1,2.7-1.9c5.9-3.5,11.8-6.4,17.7-9.9
					c3-1.6,6.2-3.2,9.1-4.6c3.8-1.6,7.5-3.2,11-4.8l1.3-0.3c0.8-0.8,1.1-2.1,1.1-3.2c-1.1-0.3-3.2,1.1-4,1.3c-7,3-14,6.2-20.7,9.9
					c-5.9,3.5-11.5,6.7-17.4,9.9C183.2,274.3,183,274.6,182.7,274.8z"/>
				<path class="st1" d="M209.3,272.1c0.3,1.9,0.5,2.7,1.9,3.8c1.6-0.5,2.4-2.4,1.9-4l0,0h-0.3c0,0.3-0.3,0.3-0.3,0.5
					c-0.8,1.1-1.3,0.8-2.1-0.3c-0.8-2.4,1.3-4.3,1.3-6.7C210.3,266,209.5,270.8,209.3,272.1z"/>
				<path class="st1" d="M147.3,277c1.1,0,1.1-0.3,1.6-1.1c0.5-0.8,0.8-3.5,0.3-4.3h-0.3c-0.3,0.8-0.3,2.1-1.3,2.1
					c-1.9-0.8-2.1-3-2.1-4.8c0-0.8,0.8-3.5,0.8-3.8H146C144.3,268.4,143,274.8,147.3,277z"/>
				<path class="st1" d="M291.4,260.6c0.3,0.5,0.5,1.1,1.1,1.9c0.8,1.6,1.1,3.5,1.1,5.4c-0.3,0.5-0.8,1.6,0,2.1
					c2.1-0.8,1.3-6.2,1.1-7.8c-0.3-1.1-0.8-2.1-1.3-3c-1.1-1.3-1.1-1.3-2.1-2.7c-0.5-0.5-2.4-2.4-3.2-2.1c-0.5,0.8-0.5,1.9-0.5,2.7
					C288.7,257.9,290,259.3,291.4,260.6z"/>
				<path class="st1" d="M161.2,257.4c0,0.3,0,0.3,1.1,1.1c2.1,2.4,3.8,5.4,4.6,8.6c0,0.8,0,1.3,0,2.1c0,1.3-0.3,2.7-0.3,3h0.5v0.3
					l0.5-0.5c1.1-2.7,1.1-5.9,0.3-8.6c-1.1-3.5-3-6.4-5.6-8.9c-0.8,0-1.3,2.1-1.3,2.4S161,257.1,161.2,257.4z"/>
				<path class="st1" d="M302.1,262.8c0.5,0.3,1.1,0.3,1.3,0.3l1.3-0.5c1.1-1.1,1.3-2.7,0.5-4h-0.3c-0.5,0.8-0.5,1.9-1.6,1.9
					c-1.6-0.8-1.3-1.1-1.1-3c0.3-1.3,1.3-3,0.8-4.3h-0.3c-1.9,2.7-2.4,5.9-1.3,8.9L302.1,262.8z"/>
				<path class="st1" d="M183.8,258.7l0.8-0.3c1.1,1.3,1.6,3.5,2.4,5.1l0.5-0.3c0.3-2.1,0.8-4.6,1.3-6.7c0.5-1.1,1.1-2.4,2.4-1.3
					c0.3,0.3,0.8,1.3,1.1,1.1c0.3-0.8,0.5-1.9,0.3-2.7l-1.3-1.3c-3-1.9-4,6.7-4.3,8l0,0l-1.3-3.2c-0.8-1.1-1.3-2.4-2.4-3
					c-0.5-0.3-1.1-1.1-1.6-0.8c-0.3,1.1-0.3,1.9-0.3,3C181.4,256.8,183.2,258.7,183.8,258.7z"/>
				<path class="st1" d="M240.1,261.4h0.8c0.8-1.1,1.3-2.7,1.1-4c-0.8,0.3-0.5,1.3-1.6,1.6c-3-0.8-1.1-4.6-0.8-6.4h-0.3
					c-0.8,1.6-1.1,3.2-1.3,5.1C238.5,259.5,238.5,260.3,240.1,261.4z"/>
				<path class="st1" d="M203.1,260.6l0.5-0.3c0.5-0.8,1.3-2.7,0.8-3.5c-0.3,0.3-0.5,0.8-0.8,1.1c-2.4-0.3-0.8-3.8-0.5-5.1l-0.3-0.2
					h-0.3C201.5,255,199.9,259.5,203.1,260.6z"/>
			</g>
		</g>
		<g>
			<path class="st2" d="M216.1,216.5h-75.5c-22.6,0-40.9-18.3-40.9-40.9c0-21.5,16.5-39.1,37.5-40.7c-0.2,1.7,0.8,3.4,2.4,3.9
				c0.2,0.1,0.4,0.1,0.6,0.1v33.5c-1.3,0.2-2.4,1.1-2.9,2.4c-0.6,1.9,0.4,3.9,2.3,4.6c1.7,0.6,3.6-0.2,4.4-1.8l31.7,9.8
				c-0.2,1.7,0.7,3.4,2.4,4c1.4,0.5,2.9,0,3.8-1l34.2,22.6C215.6,214.1,215.6,215.5,216.1,216.5z"/>
			<path class="st3" d="M296.5,176.2L296.5,176.2L222,212.5c-0.1-0.1-0.3-0.3-0.4-0.4l35.2-52.6c0.4,0.1,0.8,0.2,1.2,0.2
				c1.3,0,2.4-0.6,3-1.6l35.5,16.1l0,0C296.3,174.8,296.3,175.5,296.5,176.2z"/>
			<path class="st4" d="M344,174.6c0,19.5-12.6,36.1-30.2,42h-91.2c0.5-1,0.5-2.1,0-3.1l74.4-36.2c1,1.4,2.8,1.9,4.4,1.3
				c1.8-0.8,2.7-2.9,1.9-4.8c-0.4-1.1-1.3-1.8-2.4-2.1l4.3-36.7h0.1c2,0,3.6-1.6,3.6-3.6c0-0.1,0-0.1,0-0.2c6,1.3,11.5,3.7,16.3,7.1
				C336.6,146.4,344,159.6,344,174.6z"/>
			<path class="st5" d="M304.1,134.8l-4.3,36.7c-0.4,0-0.7,0.1-1.1,0.2l-15.3-28.4l18.9-9.9C302.7,134.1,303.4,134.5,304.1,134.8z"
				/>
			<path class="st3" d="M297.7,172.3c-0.3,0.2-0.6,0.5-0.8,0.9l-35.5-16.1c0.1-0.3,0.1-0.6,0.1-1s-0.1-0.8-0.2-1.2l21.1-11
				L297.7,172.3z"/>
			<path class="st5" d="M281.9,142.9l-21.1,11c-0.1-0.1-0.2-0.2-0.2-0.3l13.5-20.3c0.5,0.2,1,0.3,1.5,0.3c0.4,0,0.8-0.1,1.2-0.2
				L281.9,142.9z"/>
			<path class="st5" d="M301.8,132.5l-18.9,9.9l-5.1-9.4c0.7-0.5,1.2-1.3,1.3-2.1l22.5,1.1C301.7,132,301.8,132.3,301.8,132.5z"/>
			<path class="st6" d="M306.2,127.9c-0.3-0.1-0.6-0.1-1-0.1c-1.8,0-3.2,1.2-3.5,2.9l-22.5-1.1c-0.2-1.8-1.7-3.2-3.6-3.2
				c-0.5,0-1,0.1-1.5,0.3L262,107.9c0.7-0.6,1.1-1.6,1.1-2.6s-0.4-2-1.2-2.6c4.1-2.1,8.8-3.3,13.8-3.3
				C292,99.4,305.2,112,306.2,127.9z"/>
			<path class="st2" d="M256,105.3c0,0.3,0,0.5,0.1,0.8L205.8,129c-0.6-1-1.8-1.6-3-1.6c-1.9,0-3.5,1.5-3.6,3.3l-54.8,4.2
				c-0.2-1.3-1.1-2.4-2.4-2.9c-0.1,0-0.2-0.1-0.2-0.1c0-0.7,0-1.4,0-2.1c0-34.1,27.6-61.7,61.7-61.7c24,0,44.8,13.7,55,33.8
				C257.1,102.4,256,103.7,256,105.3z"/>
			<path class="st6" d="M273.2,127.3c-0.6,0.5-1.1,1.3-1.2,2.2l-65.7,0.9c0-0.1,0-0.2-0.1-0.4l50.2-22.9c0.6,1.1,1.8,1.8,3.1,1.8
				c0.6,0,1.1-0.1,1.6-0.4L273.2,127.3z"/>
			<path class="st6" d="M273.2,132.7l-13.5,20.2c-0.5-0.3-1.1-0.5-1.8-0.5c-1.3,0-2.4,0.6-3,1.6l-48.6-22.1c0-0.1,0.1-0.3,0.1-0.4
				l65.7-0.9C272.2,131.4,272.6,132.2,273.2,132.7z"/>
			<path class="st6" d="M255.7,158.9l-35.1,52.7c-0.4-0.2-0.8-0.2-1.2-0.2l-15.2-76.9c0.7-0.3,1.3-0.8,1.8-1.4l48.6,22.1
				c-0.1,0.3-0.1,0.6-0.1,1C254.3,157.2,254.9,158.2,255.7,158.9z"/>
			<path class="st7" d="M218.2,211.5c-0.4,0.1-0.8,0.4-1.2,0.7l-34.3-22.7c0.1-0.1,0.1-0.2,0.1-0.3c0.5-1.6-0.1-3.4-1.6-4.2
				l20.7-50.4c0.3,0.1,0.6,0.1,0.8,0.1h0.1L218.2,211.5z"/>
			<path class="st7" d="M201,134.1l-20.7,50.4c-1.6-0.4-3.3,0.4-4.1,1.9l-31.7-9.8c0.1-0.8,0-1.5-0.4-2.2l56.2-40.9
				C200.5,133.7,200.7,133.9,201,134.1z"/>
			<path class="st2" d="M199.6,132.6l-56.2,40.9c-0.4-0.4-0.9-0.7-1.4-0.9c-0.2-0.1-0.4-0.1-0.6-0.1V139c1.3-0.2,2.4-1.1,2.9-2.4
				c0.1-0.2,0.1-0.4,0.1-0.6l54.9-4.2C199.4,132.1,199.5,132.4,199.6,132.6z"/>
		</g>
	</g>
	<g>
		<g>
			<path class="st8" d="M103.6,412.1c-1.9-0.9-3.4-2.1-4.5-3.7c-1.1-1.6-1.6-3.3-1.6-5.2c0-1.8,0.5-6,1.6-12.4l5.5,0.3
				c-0.3,2.2-0.7,4.5-1,6.8c-0.3,2.4-0.4,3.9-0.4,4.7c0,1,0.3,1.9,0.9,2.8c0.6,0.9,1.4,1.5,2.4,2c1.1,0.5,2.2,0.7,3.5,0.7
				s2.4-0.2,3.4-0.7c1-0.5,1.8-1.2,2.3-2c0.5-0.8,0.8-1.7,0.8-2.7v-30.3h5.8v30.9c0,1.8-0.5,3.5-1.5,5.1c-1,1.5-2.4,2.8-4.2,3.7
				c-1.8,0.9-4,1.4-6.4,1.4C107.7,413.5,105.5,413,103.6,412.1z"/>
			<path class="st8" d="M152.8,402.7h-5.5c-0.6,7.2-3.6,10.7-9,10.7c-1.6,0-4.1-0.3-7.5-0.8v-5.2c3.5,0.5,5.8,0.8,7,0.8
				c0.9,0,1.6-0.2,2.2-0.5c0.5-0.3,0.9-0.9,1.1-1.6c0.2-0.8,0.4-1.9,0.4-3.3h-5c-6,0-9-3.4-9-10.1c0-3.4,0.4-6,1.1-7.8
				c0.8-1.8,1.8-3,3.2-3.6c1.4-0.6,3.2-0.9,5.5-0.9c1.7,0,3.4,0.1,5.3,0.3c1.9,0.2,3.4,0.5,4.7,0.8v16.1h5.3V402.7z M134.2,395.9
				c0.6,1,1.9,1.5,3.8,1.5h3.6v-11.7c-1.1-0.1-2.2-0.2-3.2-0.2c-1.2,0-2.2,0.2-2.9,0.5c-0.7,0.3-1.3,1-1.7,1.9
				c-0.4,1-0.6,2.4-0.6,4.3C133.3,393.7,133.6,394.9,134.2,395.9z"/>
			<path class="st8" d="M173,382.4c1.2,1.1,1.9,3,1.9,5.4v14.9h-22.1v-5.3h16.3v-8.1c0-1.2-0.3-2.2-0.8-2.8
				c-0.5-0.6-1.5-0.9-2.7-0.9c-2.7,0.1-5,0.2-6.9,0.3l-2.2,0.1l-0.2-3.9c1.5-0.4,3.3-0.7,5.5-1c2.1-0.3,3.9-0.4,5.4-0.4
				C169.8,380.6,171.8,381.2,173,382.4z M163.2,371.4h5.3v5.6h-5.3V371.4z"/>
			<path class="st8" d="M203.4,397.4v5.3h-24.2v-5.3h13.9v-1.6c0-3.8-0.7-6.4-2.1-8c-1.4-1.6-3.1-2.4-5.1-2.4h-4.4l-0.4-4.5
				c0.9-0.2,1.9-0.4,3.1-0.6c1.1-0.2,2.2-0.3,3.1-0.3c2.3,0,4.3,0.6,6.1,1.7c1.7,1.1,3.1,2.9,4.1,5.1c1,2.3,1.5,5.1,1.5,8.4v2.1
				H203.4z"/>
			<path class="st8" d="M214.5,372.4v30.3h-11.1v-5.3h5.3v-25H214.5z"/>
			<path class="st8" d="M221.5,372.4h5.8v30.3h-5.8V372.4z"/>
			<path class="st8" d="M269.3,397.4v5.3H254c-2.9,0-5.1-0.3-6.8-0.9c-1.6-0.6-2.9-1.7-3.7-3.3c-0.8-1.6-1.2-3.9-1.2-7
				c0-2.9,0.4-5.1,1.1-6.7c0.8-1.5,2-2.6,3.6-3.2c1.7-0.6,4-0.9,7.1-0.9c1.6,0,3.5,0.1,5.8,0.2c2.3,0.1,3.8,0.2,4.8,0.4v16.2H269.3z
				 M248.8,395.2c0.4,0.9,1.1,1.4,1.9,1.8c0.9,0.3,2,0.5,3.6,0.5h4.7v-11.3c-1.4-0.1-3-0.2-4.5-0.2c-1.6,0-2.8,0.2-3.7,0.5
				c-0.9,0.3-1.5,0.9-1.9,1.7s-0.6,1.9-0.6,3.4C248.2,393.1,248.4,394.4,248.8,395.2z M249.2,371.6h4.5v5.4h-4.5V371.6z
				 M255.8,371.6h4.5v5.4h-4.5V371.6z"/>
			<path class="st8" d="M281.6,381.1v21.6h-12.3v-5.3h6.5v-16.4H281.6z M276.1,406.2h5.3v5.6h-5.3V406.2z"/>
			<path class="st8" d="M288,372.4h5.8v30.3H288V372.4z"/>
			<path class="st8" d="M324.8,402.7h-5.5c-0.6,7.2-3.6,10.7-9,10.7c-1.6,0-4.1-0.3-7.5-0.8v-5.2c3.5,0.5,5.8,0.8,7,0.8
				c0.9,0,1.6-0.2,2.2-0.5s0.9-0.9,1.1-1.6s0.4-1.9,0.4-3.3h-5c-6,0-9-3.4-9-10.1c0-3.4,0.4-6,1.1-7.8c0.8-1.8,1.8-3,3.2-3.6
				c1.4-0.6,3.2-0.9,5.5-0.9c1.7,0,3.4,0.1,5.3,0.3c1.9,0.2,3.4,0.5,4.7,0.8v16.1h5.3V402.7z M306.3,395.9c0.6,1,1.9,1.5,3.8,1.5
				h3.6v-11.7c-1.1-0.1-2.2-0.2-3.2-0.2c-1.2,0-2.2,0.2-2.9,0.5c-0.7,0.3-1.3,1-1.7,1.9c-0.4,1-0.6,2.4-0.6,4.3
				C305.3,393.7,305.6,394.9,306.3,395.9z"/>
			<path class="st8" d="M337.1,381.1v21.6h-12.3v-5.3h6.5v-16.4H337.1z M331.6,406.2h5.3v5.6h-5.3V406.2z"/>
		</g>
		<g>
			<path class="st8" d="M147.7,470.5v9h-41.1v-9h23.6v-2.6c0-6.4-1.2-10.9-3.6-13.6c-2.4-2.7-5.3-4.1-8.6-4.1h-7.4l-0.7-7.7
				c1.5-0.3,3.2-0.7,5.2-1c1.9-0.3,3.7-0.4,5.3-0.4c3.9,0,7.4,1,10.3,2.9c3,1.9,5.3,4.8,6.9,8.7c1.6,3.9,2.5,8.6,2.5,14.3v3.6H147.7
				z"/>
			<path class="st8" d="M182.1,444.9c2.1,1.9,3.1,5,3.2,9.2v25.4h-37.6v-9h27.7v-13.8c0-2.1-0.5-3.7-1.4-4.7
				c-0.9-1.1-2.5-1.6-4.7-1.6c-4.5,0.1-8.4,0.3-11.8,0.4l-3.7,0.1l-0.3-6.5c2.5-0.7,5.6-1.3,9.3-1.7c3.6-0.5,6.7-0.7,9.2-0.7
				C176.7,442,180,443,182.1,444.9z"/>
			<path class="st8" d="M235.7,479.5h-9.3c-1.1,12.2-6.2,18.2-15.3,18.2c-2.6,0-6.9-0.5-12.8-1.4v-8.9c5.9,0.9,9.9,1.3,11.9,1.3
				c1.6,0,2.8-0.3,3.7-0.8c0.9-0.5,1.5-1.5,1.9-2.8c0.4-1.3,0.6-3.2,0.6-5.7h-8.5c-10.1,0-15.2-5.7-15.2-17.2
				c0-5.8,0.6-10.3,1.9-13.3c1.3-3,3.1-5.1,5.5-6.1c2.4-1.1,5.5-1.6,9.4-1.6c2.8,0,5.9,0.2,9,0.6c3.2,0.4,5.9,0.8,8,1.3v27.4h9
				V479.5z M204.2,468c1.1,1.7,3.2,2.5,6.5,2.5h6.1v-19.9c-1.9-0.2-3.7-0.4-5.4-0.4c-2.1,0-3.7,0.3-4.9,0.8
				c-1.2,0.6-2.2,1.7-2.9,3.3c-0.7,1.6-1,4.1-1,7.3C202.6,464.2,203.1,466.3,204.2,468z"/>
			<path class="st8" d="M289.9,470.5v9h-4c-0.8,0-1.6-0.3-2.4-0.9c-0.7-0.6-1.3-1.3-1.6-2.3v3.2h-46.2v-9h11.5c-0.7-3.5-1-6.6-1-9.3
				c0-2.7,0.3-5.6,0.8-8.7c0.5-3.1,1.2-5.8,1.8-8c1.3-0.6,3.3-1.2,5.9-1.7c2.6-0.5,5.5-0.7,8.7-0.7c5,0,8.9,0.7,11.7,2.2
				c2.7,1.5,4.6,3.6,5.5,6.2c1,2.7,1.4,6.2,1.4,10.6v6.2c0.3,1,0.9,1.8,1.6,2.3c0.7,0.6,1.5,0.8,2.4,0.8H289.9z M256,466.3
				c0.2,1.7,0.5,3.2,0.7,4.2h15.4v-9.6c0-3.4-0.7-6-2-7.6c-1.3-1.6-3.9-2.4-7.8-2.4c-1.9,0-3.7,0.2-5.6,0.6c-0.7,3.7-1,6.9-1,9.7
				C255.7,462.9,255.8,464.6,256,466.3z"/>
			<path class="st8" d="M308.8,428v51.5h-18.9v-9h9V428H308.8z"/>
			<path class="st8" d="M320.6,428h9.9v51.5h-9.9V428z"/>
		</g>
	</g>
</g>
</svg>
